<?xml version="1.0" encoding="utf-8"?>
<!-- Generator: Adobe Illustrator 20.1.0, SVG Export Plug-In . SVG Version: 6.00 Build 0)  -->
<svg version="1.2" baseProfile="tiny" id="Layer_1" xmlns="http://www.w3.org/2000/svg" xmlns:xlink="http://www.w3.org/1999/xlink"
	 x="0px" y="0px" viewBox="0 0 194.4 57.1" width="110px" height="50px">
<path fill="#d5d5d5" d="M18.7,34.3l9.1,15.6h13.1L28.4,31.3c4.8-2.7,7.3-6.6,7.3-11.5c0-8.4-5.8-12.7-17.5-12.7h-14v42.8h11.6V34.3
	H18.7z M15.7,15.8H18c4,0,5.9,1.5,5.9,4.4c0,3.6-2,5.4-6.1,5.4h-2.2V15.8z"/>
<path fill="#d5d5d5" d="M67,50c1.9-0.4,3.8-1,5.6-1.9v-8.2c-2,0.9-3.8,1.6-5.5,1.9c-1.7,0.4-3.5,0.6-5.6,0.6c-2.2,0-4-0.5-5.2-1.6
	c-1.3-1.1-2-2.5-2-4.4h20.5v-5.1c0-4.9-1.4-8.7-4.1-11.3c-2.7-2.6-6.6-3.9-11.6-3.9c-5.3,0-9.3,1.5-12.1,4.5
	c-2.8,3-4.2,7.3-4.2,12.9c0,5.4,1.5,9.6,4.6,12.6c3.1,2.9,7.3,4.4,12.9,4.4C62.8,50.5,65,50.3,67,50z M62.9,25.4
	c0.9,1,1.3,2.2,1.4,3.8h-9.8c0.2-1.8,0.7-3.1,1.6-4c0.9-0.8,2-1.3,3.4-1.3C60.9,23.9,62.1,24.4,62.9,25.4z"/>
<path fill="#d5d5d5" d="M110.8,49.9V28.2c0-3.8-1.2-6.7-3.5-8.8c-2.3-2.1-5.6-3.2-9.9-3.2c-5.9,0-10.8,1-14.6,3l3.3,7.6
	c3.7-1.6,6.8-2.5,9.2-2.5c2.7,0,4,1.4,4,4.1v0.5L93.8,29c-4.7,0.2-8.2,1.2-10.7,2.9c-2.5,1.7-3.7,4.4-3.7,7.9c0,3.4,0.9,6,2.7,7.9
	c1.8,1.9,4.3,2.8,7.4,2.8c2.5,0,4.6-0.4,6.2-1.1c1.6-0.7,3.2-2,4.7-3.9h0.2l2.2,4.4H110.8z M91.1,39.4c0-2.6,1.9-4,5.7-4.2l2.6-0.1
	v2.6c0,1.4-0.5,2.5-1.5,3.4c-1,0.9-2.2,1.3-3.6,1.3C92.2,42.4,91.1,41.4,91.1,39.4L91.1,39.4z"/>
<path fill="#d5d5d5" d="M130,4.3h-11.5v45.6H130V4.3z"/>
<path fill="#d5d5d5" d="M190.2,49.9V28.3c0-4.1-0.9-7.2-2.8-9.2c-1.9-2-4.8-3-8.7-3c-2,0-3.9,0.4-5.5,1.2c-1.7,0.8-3,1.8-3.9,3.2
	h-0.9c-1.9-2.9-5.3-4.4-10.1-4.4c-2.1,0-4,0.4-5.7,1.2c-1.7,0.8-2.9,2-3.8,3.5H148l-1.4-4.1h-8.6v33.2h11.5V35.4
	c0-3.6,0.4-6.2,1.2-7.9c0.8-1.6,2.1-2.4,3.9-2.4c1.3,0,2.3,0.6,2.8,1.7c0.6,1.1,0.9,2.8,0.9,5.1v18h11.5V34.5c0-3.2,0.4-5.6,1.2-7.1
	c0.8-1.5,2.1-2.3,3.9-2.3c1.3,0,2.3,0.6,2.9,1.7c0.6,1.1,0.9,2.8,0.9,5.1v18H190.2z"/>
</svg>
